<svg xmlns="http://www.w3.org/2000/svg" xmlns:xlink="http://www.w3.org/1999/xlink" width="100" height="100" viewBox="0 0 100 100">
    <defs>
        <path id="a" d="M.97.142h23.36V18H.97z"/>
        <path id="c" d="M0 .718h42.066v21.674H0z"/>
        <path id="e" d="M.813.131H75v49.021H.813z"/>
    </defs>
    <g fill="none" fill-rule="evenodd">
        <g transform="translate(7 67.282)">
            <mask id="b" fill="#fff">
                <use xlink:href="#a"/>
            </mask>
            <path fill="#00ABA6" d="M24.23 3.53V.141a4.764 4.764 0 0 1-3.268 1.004l-2.08 5.382a11.214 11.214 0 0 1-10.394 7.125H.97V18h7.52a15.492 15.492 0 0 0 14.447-9.904l1.393-3.6a4.765 4.765 0 0 1-.099-.967" mask="url(#b)"/>
        </g>
        <path fill="#00ABA6" d="M21.667 28.048a8.635 8.635 0 0 1 8.625 8.625h3.761c.19-.085.385-.16.584-.22-.126-7.162-6.035-12.867-13.199-12.741-7.07.124-12.74 5.889-12.745 12.96V50.87h2.174a5.004 5.004 0 0 1 0 10.007H7.97v4.347h2.898a9.35 9.35 0 0 0 9.348-9.354 9.351 9.351 0 0 0-7.174-9.092V36.674a8.634 8.634 0 0 1 8.626-8.626"/>
        <g transform="translate(0 14.283)">
            <mask id="d" fill="#fff">
                <use xlink:href="#c"/>
            </mask>
            <path fill="#00ABA6" d="M21.667 5.071c8.815.011 16.22 6.632 17.212 15.391v-.867a4.796 4.796 0 0 1 3.187-4.51C38.032 3.82 25.628-2.043 14.362 1.992A21.666 21.666 0 0 0 0 22.392h4.347c.01-9.562 7.758-17.31 17.32-17.32" mask="url(#d)"/>
        </g>
        <g transform="translate(25 31.282)">
            <mask id="f" fill="#fff">
                <use xlink:href="#e"/>
            </mask>
            <path fill="#CC177E" d="M72.533 14.442a2.467 2.467 0 0 0-2.467 2.467v15.463a2.468 2.468 0 0 0 4.934.006V16.912a2.467 2.467 0 0 0-2.462-2.468l-.005-.002zM64.8 7.286a2.468 2.468 0 0 0-2.467 2.467v29.775a2.468 2.468 0 0 0 4.934.007V9.754c0-1.36-1.1-2.464-2.46-2.468H64.8zm-23.03 3.867a2.467 2.467 0 0 0-2.466 2.467v22.043a2.465 2.465 0 0 0 2.463 2.47 2.465 2.465 0 0 0 2.47-2.464V13.62a2.466 2.466 0 0 0-2.459-2.467l-.008.001zm7.65-3.867a2.467 2.467 0 0 0-2.467 2.467v29.775a2.466 2.466 0 1 0 4.934.007V9.754a2.469 2.469 0 0 0-2.46-2.468h-.007zM57.152.131a2.467 2.467 0 0 0-2.467 2.467v44.085a2.467 2.467 0 0 0 4.934.006V2.598A2.466 2.466 0 0 0 57.157.131h-.005zM3.28 14.442A2.466 2.466 0 0 0 .813 16.91v15.463a2.467 2.467 0 1 0 4.933.006V16.912a2.467 2.467 0 0 0-2.462-2.468l-.004-.002zm7.733-7.156a2.468 2.468 0 0 0-2.467 2.467v29.775a2.468 2.468 0 0 0 4.934.007V9.754a2.468 2.468 0 0 0-2.464-2.468h-.003zm7.65-7.155a2.466 2.466 0 0 0-2.467 2.467v44.085a2.465 2.465 0 0 0 4.933 0V2.598A2.466 2.466 0 0 0 18.665.131h-.003zm7.733 7.155a2.467 2.467 0 0 0-2.467 2.467v29.775a2.468 2.468 0 0 0 4.934.007V9.754a2.468 2.468 0 0 0-2.466-2.468zm7.65 7.65a2.467 2.467 0 0 0-2.468 2.466V31.88a2.467 2.467 0 1 0 4.934.006V17.403a2.467 2.467 0 0 0-2.466-2.467z" mask="url(#f)"/>
        </g>
    </g>
</svg>
