<svg xmlns="http://www.w3.org/2000/svg" xmlns:xlink="http://www.w3.org/1999/xlink" width="100" height="100" viewBox="0 0 100 100">
    <defs>
        <path id="a" d="M.63.214h57.437v33.753H.63z"/>
        <path id="c" d="M0 .697h100V57H0z"/>
    </defs>
    <g fill="none" fill-rule="evenodd">
        <g transform="translate(37 1.786)">
            <mask id="b" fill="#fff">
                <use xlink:href="#a"/>
            </mask>
            <path fill="#CC177E" d="M4.275 18.662a1.678 1.678 0 0 1-1.594 1.615c-1 .106-1.813-.343-1.937-1.318a15.974 15.974 0 0 1 0-3.81 1.577 1.577 0 0 1 1.768-1.36l.043.008a1.721 1.721 0 0 1 1.72 1.643c.037.536.04 1.074.013 1.61.028.535.024 1.07-.013 1.605v.007zM42.843 17c0 1.244.024 2.487-.007 3.733-.031 1.284-.745 2.09-1.81 2.119-1.125.03-1.902-.784-1.917-2.127-.027-2.444-.025-4.89.005-7.333.015-1.294.716-2.08 1.793-2.114 1.125-.035 1.884.774 1.92 2.122.034 1.2.008 2.404.008 3.606l.008-.006zM12.15 17c0 1.239.032 2.479-.008 3.717-.046 1.372-.768 2.2-1.845 2.21-1.077.01-1.846-.825-1.863-2.17a287.847 287.847 0 0 1 0-7.434c.018-1.348.667-2.067 1.762-2.112 1.148-.044 1.889.695 1.95 2.073.056 1.236.012 2.478.012 3.716h-.008zm45.898 4.89a1.852 1.852 0 1 1-3.69.072c-.057-3.267-.06-6.535-.01-9.805a1.803 1.803 0 0 1 1.949-1.946c1.059.046 1.724.76 1.75 2 .038 1.613.01 3.227.01 4.84 0 1.615.024 3.22-.01 4.835v.004zm-38.103 3.508a1.867 1.867 0 1 1-3.708-.024c-.02-5.555-.011-11.11-.004-16.666a1.832 1.832 0 0 1 1.383-1.965c1.295-.368 2.318.533 2.333 2.112.027 2.695.007 5.39.007 8.085 0 2.816.024 5.635-.011 8.453v.005zM46.74 17.17c0-2.28-.005-4.558 0-6.837.003-1.408-.017-2.818.048-4.223a1.631 1.631 0 0 1 1.61-1.653h.077A1.678 1.678 0 0 1 50.36 5.89c.078.363.117.734.117 1.106.003 6.71-.001 13.423-.013 20.138 0 .41.064.956-.161 1.199a3.781 3.781 0 0 1-1.733 1.285c-.883.176-1.554-.467-1.751-1.393a6.66 6.66 0 0 1-.087-1.36 2611.93 2611.93 0 0 1-.003-9.697l.01.002zm-22.876-.18c0-3.604-.006-7.208 0-10.813.004-1.624.615-2.43 1.818-2.448 1.203-.018 1.874.817 1.923 2.387.005.166 0 .333 0 .497 0 7.043-.003 14.088-.01 21.132 0 .45.068 1.042-.178 1.322a3.54 3.54 0 0 1-1.741 1.27 1.546 1.546 0 0 1-1.726-1.342l-.008-.076a7.469 7.469 0 0 1-.083-1.361c-.006-3.522-.007-7.044-.003-10.565l.008-.002zm11.319.015V2.72c0-.371.109-.858-.08-1.092C34.65 1.062 34.082.27 33.5.217c-.581-.053-1.333.59-1.818 1.108-.274.29-.22.943-.22 1.433-.013 9.565-.018 19.129-.014 28.693a5.12 5.12 0 0 0 .032.743c.177 1.183.934 1.867 2 1.763a1.745 1.745 0 0 0 1.693-1.923c.026-2.066.015-4.14.015-6.21l-.003-8.82z" mask="url(#b)"/>
        </g>
        <path fill="#F0AD0D" d="M38.007 70.602a1.838 1.838 0 0 1 3.67-.158c.05.409.067.822.051 1.234.004 2.006-.578 2.912-1.867 2.924-1.309.01-1.866-.853-1.856-2.886-.002-.37-.025-.746.002-1.113v-.001zm32.625 1.047c0-.95-.025-1.9.005-2.848.041-1.248.788-2.041 1.859-2.033a1.832 1.832 0 0 1 1.843 1.933c.053 1.979.053 3.96 0 5.943a1.848 1.848 0 1 1-3.693-.022c-.041-.99-.009-1.981-.009-2.972l-.005-.001zM48.28 74.83a1.69 1.69 0 0 1-1.725 1.76 1.624 1.624 0 0 1-1.874-1.582 79.088 79.088 0 0 1 0-6.695 1.607 1.607 0 0 1 1.875-1.571 1.682 1.682 0 0 1 1.722 1.753c.053 1.033.012 2.07.012 3.106-.001 1.078.03 2.156-.01 3.23v-.001zm35.286-6.79c.027-1.29.706-2.062 1.787-2.098 1.128-.037 1.906.759 1.926 2.099.036 2.436.037 4.873.004 7.31a1.896 1.896 0 0 1-1.863 2.063c-1.059 0-1.816-.81-1.851-2.063-.035-1.238-.008-2.478-.008-3.717-.001-1.2-.021-2.394.005-3.592v-.001zm-32.333-2.488c.007-1.5.635-2.315 1.788-2.357 1.199-.043 1.941.822 1.945 2.344.011 4.094.008 8.188-.008 12.283-.006 1.456-.727 2.323-1.862 2.329-1.135.006-1.849-.862-1.86-2.316-.016-2.027-.003-4.053-.004-6.08-.001-2.066-.008-4.134.001-6.202v-.001zm25.86 6.2c0-2.65-.012-5.297.005-7.946.009-1.491.673-2.305 1.826-2.32 1.154-.015 1.894.823 1.898 2.266.016 5.256.016 10.512 0 15.767-.003 1.455-.719 2.325-1.847 2.344-1.18.019-1.87-.854-1.877-2.415-.009-2.566 0-5.133 0-7.697h-.005zm-15.666 8.21c-.006 1.56-.688 2.452-1.853 2.467-1.164.015-1.872-.871-1.874-2.425a7691.38 7691.38 0 0 1 0-16.64c0-1.577.661-2.446 1.833-2.462 1.172-.016 1.887.877 1.893 2.42.012 2.815.004 5.63.004 8.445 0 2.73.008 5.463-.003 8.195zm6.466-8.444c.001-3.56-.001-7.117-.004-10.675a5.524 5.524 0 0 0-.116-1.351 1.69 1.69 0 0 0-1.828-1.363 1.76 1.76 0 0 0-1.729 1.51 5.376 5.376 0 0 0-.053 1.112c-.002 7.282-.002 14.564 0 21.846 0 .248-.01.498.012.744a1.858 1.858 0 0 0 1.8 1.85 1.8 1.8 0 0 0 1.88-1.716l.002-.043c.087-1.195.043-2.4.044-3.601.004-2.772.004-5.543 0-8.316l-.008.003z"/>
        <g transform="translate(0 42.786)">
            <mask id="d" fill="#fff">
                <use xlink:href="#c"/>
            </mask>
            <path fill="#00ABA6" d="M99.995 3.103C99.183 1.36 97.842.71 95.908.748c-4.641.095-9.286.03-13.93.032a12.24 12.24 0 0 0-1.24.04 1.82 1.82 0 0 0-.083 3.627 14.09 14.09 0 0 0 1.86.072c4.517.005 9.033 0 13.649 0v48.65H3.817V4.597c.886-.183 52.777-.085 63.515-.09.455.013.91-.002 1.364-.043a1.755 1.755 0 0 0 1.762-1.868c.006-1.034-.666-1.69-1.825-1.8-.411-.037-.828-.025-1.242-.025C57.067.771 5.115.697 3.4.697c-1.715 0-3.4.867-3.4 2.4v51.492C0 56.064 1.315 57 3.267 57c39.706-.035 52.966-.038 92.672-.011 1.922 0 3.283-.627 4.06-2.4l-.004-51.486z" mask="url(#d)"/>
        </g>
        <path fill="#00ABA6" d="M19.157 82.179c-2.648 0-5.296-.011-7.944.004-1.432.009-2.289.746-2.263 1.889.026 1.107.834 1.823 2.223 1.829 5.422.022 10.842.024 16.26.005 1.37-.004 2.185-.742 2.192-1.852.007-1.15-.836-1.866-2.276-1.878-2.734-.016-5.462-.004-8.192-.004v.007zM19.37 80.052c2.647 0 5.294.015 7.94-.005 1.509-.013 2.3-.666 2.305-1.831.004-1.164-.795-1.876-2.282-1.883-5.378-.023-10.754-.023-16.127 0-1.443.007-2.282.782-2.252 1.92.029 1.097.833 1.778 2.23 1.79 2.729.025 5.458.008 8.187.01M39.051 87.966c0-1.616.009-3.098 0-4.58-.011-1.545-.713-2.431-1.889-2.413-1.175.019-1.83.892-1.838 2.466a515.847 515.847 0 0 0-.003 5.967c.011 1.6.675 2.276 2.258 2.288 2.237.016 4.475.017 6.712-.008 1.345-.015 2.2-.78 2.176-1.87-.023-1.04-.844-1.805-2.115-1.838-1.728-.045-3.457-.011-5.301-.011M88.312 87.961c-1.773 0-3.347-.01-4.92 0-1.573.012-2.45.688-2.48 1.852-.029 1.177.843 1.867 2.41 1.874 2.155.01 4.31.018 6.463-.003 1.6-.016 2.237-.667 2.252-2.288.02-2.072.021-4.143.005-6.215-.01-1.359-.727-2.199-1.826-2.218-1.099-.018-1.866.825-1.897 2.162-.03 1.57-.007 3.133-.007 4.836M88.312 55.567c0 1.652-.011 3.133 0 4.617.015 1.533.745 2.407 1.933 2.364 1.133-.04 1.792-.889 1.8-2.365.01-2.028.013-4.056-.008-6.084-.018-1.592-.675-2.243-2.283-2.258a390.054 390.054 0 0 0-6.58-.007c-1.393.011-2.21.684-2.253 1.787-.045 1.13.834 1.915 2.25 1.94 1.652.028 3.303.006 5.14.006M39.049 55.572c1.867 0 3.6.041 5.333-.014 1.521-.047 2.521-1.28 1.898-2.44a2.576 2.576 0 0 0-1.765-1.218c-2.395-.142-4.8-.09-7.205-.048-1.284.023-1.955.738-1.976 2.06-.035 2.196-.035 4.39 0 6.587a1.878 1.878 0 0 0 1.866 2.053c1.067-.004 1.82-.806 1.847-2.072.028-1.57.002-3.14.002-4.908M15.916 91.693c1.654 0 3.308.02 4.96-.007 1.307-.022 2.062-.701 2.087-1.794a1.833 1.833 0 0 0-2-1.907c-3.348-.048-6.697-.05-10.047-.005a1.858 1.858 0 1 0 .036 3.708c1.653.038 3.307.01 4.96.01l.004-.005zM17.277 67.555c1-.007 1.817-.8 1.854-1.8a1.954 1.954 0 0 0-1.794-1.89 1.908 1.908 0 0 0-1.91 1.885 1.876 1.876 0 0 0 1.85 1.805M10.877 58.063A1.867 1.867 0 0 0 9.03 59.87a1.942 1.942 0 0 0 1.926 1.88 1.846 1.846 0 0 0-.078-3.687zM17.25 58.07a1.866 1.866 0 0 0-1.817 1.827 1.846 1.846 0 1 0 3.693.058c0-.037 0-.073-.002-.11a1.867 1.867 0 0 0-1.873-1.775M10.934 67.543a1.812 1.812 0 0 0 1.77-1.843c-.01-1-.812-1.81-1.812-1.83a1.923 1.923 0 0 0-1.854 1.934 1.845 1.845 0 0 0 1.896 1.739M23.715 58.07a1.82 1.82 0 0 0-1.858 1.756 1.848 1.848 0 0 0 1.832 1.925 1.917 1.917 0 0 0 1.817-1.84 1.857 1.857 0 0 0-1.791-1.84M29.983 52.248a1.844 1.844 0 0 0-1.76 1.876 1.81 1.81 0 0 0 1.972 1.768 1.78 1.78 0 0 0 1.684-1.87l-.003-.047a1.814 1.814 0 0 0-1.893-1.727M17.268 52.244a1.882 1.882 0 0 0-1.835 1.81 1.847 1.847 0 0 0 3.692-.016 1.898 1.898 0 0 0-1.857-1.794M12.7 54.053a1.805 1.805 0 0 0-1.808-1.803h-.002a1.89 1.89 0 0 0-1.857 1.79 1.84 1.84 0 0 0 1.83 1.847l.074-.001a1.78 1.78 0 0 0 1.765-1.796l-.001-.037M30.075 58.065a1.846 1.846 0 0 0-1.842 1.793 1.888 1.888 0 0 0 1.882 1.889 1.862 1.862 0 0 0 1.77-1.872 1.821 1.821 0 0 0-1.81-1.81M30.094 63.873a1.901 1.901 0 0 0-1.867 1.785 1.835 1.835 0 0 0 1.738 1.886 1.806 1.806 0 0 0 1.914-1.818 1.846 1.846 0 0 0-1.785-1.853M23.644 67.543a1.821 1.821 0 0 0 1.858-1.766 1.893 1.893 0 0 0-1.867-1.905 1.843 1.843 0 0 0-1.783 1.853 1.807 1.807 0 0 0 1.792 1.818M23.616 55.886a1.805 1.805 0 0 0 1.887-1.719v-.008a1.828 1.828 0 0 0-1.712-1.907 1.81 1.81 0 0 0-1.936 1.8 1.777 1.777 0 0 0 1.718 1.833h.043"/>
    </g>
</svg>
