<svg xmlns="http://www.w3.org/2000/svg" width="100" height="100" viewBox="0 0 100 100">
    <g fill="none" fill-rule="evenodd">
        <path fill="#00ABA6" d="M16.152 86.143h67.695V12H16.152zM93.552 73.248H100V24.894h-6.448zM0 73.248h6.447V24.894H0z"/>
        <path fill="#FFF" d="M66.483 29.354a1.195 1.195 0 0 0-.956-.269l-22.562 3.53a1.178 1.178 0 0 0-1.003 1.163V56.93a8.082 8.082 0 0 0-5.344-1.976c-4.257 0-7.718 3.166-7.718 7.058 0 3.893 3.463 7.06 7.718 7.06 4.196 0 7.614-3.08 7.71-6.896 0-.015.01-.028.01-.044V41.84l20.188-3.156v11.19a8.07 8.07 0 0 0-5.345-1.979c-4.257 0-7.718 3.166-7.718 7.057 0 3.894 3.463 7.059 7.718 7.059 4.256 0 7.719-3.165 7.719-7.059V30.248c0-.344-.153-.67-.417-.894"/>
        <path fill="#F0AD0D" d="M88.676 82.187a4.163 4.163 0 0 1 0 6.231c-1.869 1.557-4.673 1.557-6.23 0L65.001 70.973a26.78 26.78 0 0 1-31.125 0c-12.036-8.595-14.826-25.32-6.23-37.356 8.593-12.036 25.32-14.826 37.354-6.23 12.036 8.594 14.826 25.32 6.231 37.355l17.445 17.445zm-38.94-12.46h.081c11.161-.023 20.19-9.089 20.168-20.25 0-11.184-9.066-20.25-20.249-20.25-11.184 0-20.25 9.066-20.25 20.25 0 11.183 9.066 20.25 20.25 20.25z"/>
        <path fill="#CC177E" d="M85.476 79.696h6.448V18.447h-6.448zM8.076 79.696h6.447V18.447H8.076z"/>
    </g>
</svg>
