<svg xmlns="http://www.w3.org/2000/svg" xmlns:xlink="http://www.w3.org/1999/xlink" width="100" height="99" viewBox="0 0 100 99">
    <defs>
        <path id="a" d="M0 .003h100V99.01H0z"/>
    </defs>
    <g fill="none" fill-rule="evenodd">
        <g transform="translate(0 -.012)">
            <mask id="b" fill="#fff">
                <use xlink:href="#a"/>
            </mask>
            <path fill="#00ABA6" d="M74.007 25.042a1.595 1.595 0 0 0 2.132.699h.002a92.114 92.114 0 0 0 2.778-1.442c.022 1.913-1.527 3.48-3.458 3.501-1.932.021-3.515-1.512-3.536-3.423-.022-1.913 1.527-3.48 3.458-3.501a3.523 3.523 0 0 1 2.062.637c-.899.484-1.81.957-2.733 1.417a1.565 1.565 0 0 0-.705 2.11v.002zm10.2 22.634L37.695 93.724a.851.851 0 0 1-1.192 0L5.341 62.871a.83.83 0 0 1 0-1.182l46.511-46.05a7.613 7.613 0 0 1 5.391-2.21H80.51c1.866 0 3.623.871 4.742 2.35a128.054 128.054 0 0 1-4.743 2.917c-3.145-2.787-7.977-2.523-10.792.59a7.515 7.515 0 0 0 .596 10.686c3.144 2.787 7.976 2.523 10.791-.59a7.514 7.514 0 0 0 1.85-6.263c1.16-.676 2.325-1.38 3.484-2.106v21.32a7.459 7.459 0 0 1-2.23 5.343zM100 7.57c.023-4.156-3.36-7.544-7.557-7.568H92.357a7.687 7.687 0 0 0-5.407 2.235c-.565.558-1.562 1.73-2.106 2.38a2.505 2.505 0 0 0 .302 3.553 2.565 2.565 0 0 0 3.617-.332c.806-.961 1.491-1.74 1.788-2.036a2.605 2.605 0 0 1 1.838-.756c1.385-.005 2.512 1.103 2.517 2.474v.029a2.544 2.544 0 0 1-.765 1.808 51.138 51.138 0 0 1-4.678 3.585 11.108 11.108 0 0 0-8.952-4.555H57.245a12.703 12.703 0 0 0-8.993 3.688L1.74 58.125a5.834 5.834 0 0 0-.005 8.307l.005.005L32.902 97.29c2.32 2.293 6.076 2.293 8.396 0L87.81 51.24a12.447 12.447 0 0 0 3.725-8.903V19.3a11.177 11.177 0 0 0-.11-1.551 58.25 58.25 0 0 0 6.32-4.824A7.537 7.537 0 0 0 100 7.57z" mask="url(#b)"/>
        </g>
        <path fill="#CC177E" d="M36.398 48.448v-3.206l18.443-5.798v3.206l-18.443 5.798zm21.745-13.466l-.011-.007a2.116 2.116 0 0 0-1.848-.296l-22.595 7.107a2.055 2.055 0 0 0-1.443 1.96V64.06a9.026 9.026 0 0 0-3.333-.625 8.55 8.55 0 0 0-5.072 1.593 5.38 5.38 0 0 0-1.478 7.513 5.443 5.443 0 0 0 1.478 1.463 8.87 8.87 0 0 0 10.14 0 5.57 5.57 0 0 0 2.41-4.488v-16.75l18.442-5.808v9.96a9.015 9.015 0 0 0-3.334-.625 8.537 8.537 0 0 0-5.071 1.592A5.378 5.378 0 0 0 44.95 65.4a5.443 5.443 0 0 0 1.478 1.463 8.869 8.869 0 0 0 10.14 0 5.573 5.573 0 0 0 2.41-4.488V36.64a2.059 2.059 0 0 0-.835-1.657z"/>
    </g>
</svg>
