<svg xmlns="http://www.w3.org/2000/svg" width="50" height="50" viewBox="0 0 50 50">
    <g fill="none" fill-rule="evenodd" stroke="#222627" stroke-width="2">
        <path d="M46.592 39.343a9.542 9.542 0 0 1-19.083 0c0-5.27 4.272-9.542 9.541-9.542 5.27 0 9.542 4.272 9.542 9.542z"/>
        <path d="M27.509 39.343c0-5.27 4.272-9.542 9.541-9.542 1.409 0 2.74.313 3.943.86a20.471 20.471 0 0 0 2.125-9.102C43.118 10.205 33.913 1 22.558 1 11.205 1 2 10.205 2 21.56c0 11.354 9.204 20.558 20.559 20.558 1.794 0 3.534-.23 5.193-.663a9.515 9.515 0 0 1-.243-2.112z"/>
        <path stroke-linecap="round" stroke-linejoin="round" d="M19.155 30.9c0 1.747-1.592 3.161-3.556 3.161s-3.556-1.414-3.556-3.16c0-1.746 1.592-3.162 3.556-3.162s3.556 1.416 3.556 3.161zM33.592 24.739c0 1.745-1.593 3.16-3.557 3.16-1.963 0-3.556-1.415-3.556-3.16 0-1.747 1.593-3.161 3.556-3.161 1.964 0 3.557 1.414 3.557 3.16z"/>
        <path stroke-linecap="round" stroke-linejoin="round" d="M19.155 30.9V12.717l13.889-3.696.528 16.196M19.155 18.365l13.889-3.697M33.05 38.343l4-4 4 4M37 35v10"/>
    </g>
</svg>
