<?xml version="1.0" encoding="UTF-8"?>
<svg width="75px" height="32px" viewBox="0 0 75 32" version="1.1" xmlns="http://www.w3.org/2000/svg" xmlns:xlink="http://www.w3.org/1999/xlink">
    <!-- Generator: Sketch 55.1 (78136) - https://sketchapp.com -->
    <title>Group</title>
    <desc>Created with Sketch.</desc>
    <g id="Search" stroke="none" stroke-width="1" fill="none" fill-rule="evenodd">
        <g id="Search/Main/Upload/Empty" transform="translate(-120.000000, -12.000000)" fill="#FFFFFF" fill-rule="nonzero">
            <g id="Group" transform="translate(120.000000, 12.000000)">
                <path d="M59.0794857,20.48 C61.5955582,20.48 63.559322,18.5026207 63.559322,16 C63.559322,13.4973793 61.5955582,11.52 59.0794857,11.52 C56.6554646,11.52 54.6610169,13.5282759 54.6610169,16 C54.6610169,18.4717241 56.6554646,20.48 59.0794857,20.48 Z M55.5815313,15.721931 C55.6735827,14.0844138 57.0236704,12.6013793 58.6192285,12.3851034 C60.0306838,12.1688276 61.4421391,12.9103448 62.1785506,14.208 C62.4853887,14.7641379 62.6694915,15.382069 62.6694915,16.0308966 C62.6694915,17.7611034 61.4728229,19.2750345 59.7852133,19.6148966 C58.6192285,19.862069 57.6066628,19.5222069 56.7475161,18.7188966 C55.8883694,17.9155862 55.5201636,16.896 55.5815313,15.721931 Z" id="Shape"></path>
                <path d="M50.2140256,20.48 C50.5759868,20.48 50.8474576,20.2933333 50.8474576,20.0444444 L50.8474576,11.9555556 C50.8474576,11.7066667 50.5759868,11.52 50.2140256,11.52 C49.8520645,11.52 49.5805936,11.7066667 49.5805936,11.9555556 L49.5805936,20.0444444 C49.5353485,20.2622222 49.8520645,20.48 50.2140256,20.48 Z" id="Path"></path>
                <path d="M45.1292799,20.48 C45.491241,20.48 45.7627119,20.2933333 45.7627119,20.0444444 L45.7627119,11.9555556 C45.7627119,11.7066667 45.491241,11.52 45.1292799,11.52 C44.7673187,11.52 44.4958478,11.7066667 44.4958478,11.9555556 L44.4958478,20.0444444 C44.4506027,20.2622222 44.7673187,20.48 45.1292799,20.48 Z" id="Path"></path>
                <path d="M37.3856847,20.48 C39.178149,20.48 40.6779661,19.305931 40.6779661,17.8846897 C40.6779661,17.1122759 40.3121571,16.5252414 39.4707962,16.0926897 C39.4707962,16.0926897 39.4342153,16.0926897 39.4342153,16.0617931 L37.5320083,15.2275862 L37.4588465,15.1966897 C36.6906475,14.8877241 35.8492867,14.5478621 35.8492867,13.7754483 C35.8492867,12.9412414 36.5809048,12.3233103 37.5685892,12.3233103 C38.2636264,12.3233103 38.8489209,12.5704828 39.2878917,13.033931 C39.3610535,13.1266207 39.4707962,13.1884138 39.6171199,13.1884138 C39.7268626,13.1884138 39.8731862,13.1575172 39.9829289,13.0957241 C40.1658334,12.9721379 40.2024143,12.7249655 40.0560907,12.5704828 C39.5073771,11.9216552 38.5928545,11.52 37.6051701,11.52 C36.0321912,11.52 34.8616022,12.4777931 34.8616022,13.8063448 C34.8616022,14.5169655 35.2274113,15.0422069 35.9956103,15.4438621 L37.7880746,16.2471724 L37.9709791,16.3089655 C38.7757591,16.6488276 39.6902817,17.0195862 39.6902817,17.8228966 C39.6902817,18.8115862 38.6294354,19.6766897 37.3856847,19.6766897 C36.2150957,19.6766897 35.5566394,19.0278621 35.2639922,18.4717241 C35.1542495,18.2863448 34.8981831,18.1936552 34.6421168,18.2863448 L34.6055359,18.2863448 C34.4957932,18.3172414 34.3860505,18.409931 34.3494696,18.5026207 C34.3128887,18.5953103 34.3128887,18.7188966 34.3494696,18.8115862 C34.971345,19.8311724 36.105353,20.48 37.3856847,20.48 Z" id="Path"></path>
                <path d="M28.5361698,20.48 C29.5518085,20.48 30.5019221,20.076955 31.1244103,19.4258824 C31.779661,18.6817993 31.779661,17.9067128 31.779661,17.0076125 L31.779661,11.923045 C31.779661,11.7060208 31.5830858,11.52 31.353748,11.52 C31.1244103,11.52 30.9278351,11.7060208 30.9278351,11.923045 L30.9278351,16.8215917 C30.9278351,17.5656747 30.9278351,18.3717647 30.5019221,18.8988235 C30.0760091,19.4258824 29.2241831,19.67391 28.6016949,19.67391 C27.9792067,19.67391 27.1273807,19.4258824 26.7014678,18.8988235 C26.2755548,18.3717647 26.2755548,17.5966782 26.2755548,16.8215917 L26.2755548,11.923045 C26.2755548,11.7060208 26.0789796,11.52 25.8496418,11.52 C25.620304,11.52 25.4237288,11.7060208 25.4237288,11.923045 L25.4237288,16.976609 C25.4237288,17.8757093 25.4237288,18.6507958 26.0789796,19.4258824 C26.5704176,20.076955 27.5205312,20.48 28.5361698,20.48 Z" id="Path"></path>
                <path d="M10.6981179,20.4489965 C10.9387933,20.4489965 11.1450865,20.2939792 11.1794687,20.076955 L12.6235212,13.7212457 L15.5803907,20.2629758 C15.6491551,20.3869896 15.7866839,20.48 15.9242127,20.48 L15.9242127,20.48 C16.0961237,20.48 16.2336525,20.3869896 16.2680347,20.2629758 L19.190522,13.7212457 L20.6345745,20.076955 C20.6689567,20.2939792 20.8752499,20.4489965 21.1159253,20.4489965 C21.2534541,20.4489965 21.3909829,20.3869896 21.4941296,20.2939792 C21.5972762,20.2009689 21.6316584,20.0459516 21.5972762,19.9219377 L19.706255,11.7990311 C19.6718728,11.6440138 19.534344,11.5510035 19.362433,11.52 C19.190522,11.52 19.0529932,11.5820069 18.9842288,11.7370242 L15.9242127,18.6817993 L12.7954323,11.7370242 C12.7266679,11.5820069 12.589139,11.52 12.417228,11.52 C12.245317,11.52 12.1077882,11.6440138 12.073406,11.7990311 L10.1823849,19.9219377 C10.1480026,20.0459516 10.1823849,20.2009689 10.2855315,20.2939792 C10.3886781,20.3869896 10.5262069,20.4489965 10.6981179,20.4489965 Z" id="Path"></path>
                <path d="M74.5336919,0 L0.463147664,0 C0.198491856,0 0,0.199376947 0,0.465212876 L0,31.5347871 C0,31.8006231 0.198491856,32 0.463147664,32 L74.5336919,32 C74.7983477,32 74.9968396,31.8006231 74.9968396,31.5347871 L74.9968396,0.465212876 C75.0299215,0.199376947 74.7983477,0 74.5336919,0 Z M74.0705442,31.0695742 L0.959377304,31.0695742 L0.959377304,0.963655244 L74.0705442,0.963655244 L74.0705442,31.0695742 Z" id="Shape"></path>
            </g>
        </g>
    </g>
</svg>