<?xml version="1.0" encoding="utf-8"?>
<!-- Generator: Adobe Illustrator 23.0.4, SVG Export Plug-In . SVG Version: 6.00 Build 0)  -->
<svg version="1.1" id="Layer_1" xmlns="http://www.w3.org/2000/svg" xmlns:xlink="http://www.w3.org/1999/xlink" x="0px" y="0px"
	 viewBox="0 0 569 140" style="enable-background:new 0 0 569 140;" xml:space="preserve">
<style type="text/css">
	.st0{fill-rule:evenodd;clip-rule:evenodd;fill:#FFFFFF;}
	.st1{fill:#FFFFFF;}
</style>
<g>
	<polygon class="st0" points="79.3,0.3 50.7,72.7 21.9,0.3 0.9,0.3 0.9,138 24.2,138 24.2,53.1 44,108.6 57,108.6 77.2,52.2 
		77.2,138 100.5,138 100.5,0.3 	"/>
	<path class="st1" d="M149.1,138v-7.7c-1.9,2.3-4.8,5-7.5,6.4c-3.1,1.7-7.1,2.9-11,2.9c-9,0-15-2.5-20-7.9c-4.4-4.6-6.3-10.2-6.3-22
		V36.1h22.1v73.3c0,7.9,4.8,11.8,10.8,11.8s10.8-3.9,10.8-11.8V36.1h22.1V138H149.1z M230.4,131.3c-6.7,6.2-14.6,8.3-24,8.3
		c-9.4,0-18.6-2.9-24.2-8.3c-6.5-6.2-9.8-13.3-9.8-23h21.9c0,4.1,1.3,7.3,3.8,9.7c2.1,2.1,5.4,3.1,8.3,3.1c3.5,0,6-0.8,8.5-2.9
		c2.1-1.7,3.1-4.8,3.1-8.1c0-2.9-0.6-5.2-2.3-7.5c-1.7-2.3-4.6-4.3-8.5-5.8l-14.6-6c-7.5-3.1-12.9-7.2-16.1-11.8
		c-2.5-3.7-3.5-8.3-3.5-13.9c0-9.9,3.8-16.2,9.6-21.9c6-5.6,14.6-8.5,23.8-8.5c9.2,0,17.5,2.7,23.1,7.7c5.8,5.2,9.4,12.4,9.4,22.6
		h-21.7c0-4.4-1-7.2-3.1-9.3c-2.1-2.1-4.8-3.1-7.7-3.1c-3.3,0-6.3,1.2-8.1,2.9c-2.1,1.9-3.1,4.6-3.1,7.7c0,2.5,0.4,4.3,1.7,6
		c1.5,2.1,4.4,4.3,8.1,5.8l14.6,5.8c7.5,3.1,12.5,6.4,16.1,11.2c2.9,3.9,4.6,9.7,4.6,16.6C240.2,118.7,236,126,230.4,131.3z"/>
	<rect x="242.1" y="34.5" class="st0" width="22.1" height="103.5"/>
	<path class="st0" d="M324,132c-5.6,5.2-13.6,7.5-23.3,7.5c-10.4,0-19.6-2.5-26.1-10.8c-6.9-8.7-7.7-24.4-7.7-41.8
		c0-17.2,0.8-32.9,7.7-41.8c6.5-8.3,15.6-10.6,26.1-10.6c9.4,0,16.7,1.5,23.1,7.2c6.9,6.2,9.2,15.5,9.8,24.2h-21.9
		c-0.2-3.1-0.6-6.8-2.9-9.5c-1.7-2.3-4.4-3.7-8.1-3.7c-3.3,0-6.7,1.5-8.5,4.3c-2.9,4.6-3.1,14.9-3.1,30s0.2,25.3,3.1,30.2
		c1.9,2.7,5.2,4.1,8.5,4.1c3.8,0,6.5-1.4,8.1-3.5c2.3-2.7,2.7-6.2,2.9-9.7h21.9C333,117.7,330,126.4,324,132"/>
	<polygon class="st0" points="311.7,0.3 311.7,19.9 336.5,19.9 336.5,138 359.9,138 359.9,19.9 384.9,19.9 384.9,0.3 	"/>
	<path class="st1" d="M404.9,56.8c-1.9-2.3-4.4-4.1-8.3-4.1s-6.5,1.7-8.3,4.1c-2.5,2.9-3.3,10.6-3.3,21.1h23
		C408,67.4,407.4,59.7,404.9,56.8z M384.9,93c0,11.6,0.6,20.5,3.3,24.2c1.7,2.3,4.6,4.1,8.5,4.1c3.8,0,6.3-1.5,8.3-4.1
		c1.7-1.9,2.7-6,2.7-9.1h21.9c-0.4,8.5-2.9,17-9.2,23.4c-5.6,5.8-14.2,8.1-23.8,8.1c-10.2,0-17.1-2.1-23.8-8.3
		c-9.4-8.7-10.2-25.7-10.2-44.3s0.8-35.6,10.2-44.3c6.7-6.2,14.6-8.1,23.6-8.1c9.2,0,17.1,1.7,23.6,8.1c10.6,10.4,9.8,31.1,10,50.3
		H384.9z M490.1,132c-5.6,5.2-13.6,7.5-23.3,7.5c-10.4,0-19.6-2.5-26.1-10.8c-6.9-8.7-7.7-24.4-7.7-41.8c0-17.2,0.8-32.9,7.7-41.8
		c6.5-8.3,15.6-10.6,26.1-10.6c9.4,0,16.7,1.5,23.1,7.2c6.9,6.2,9.2,15.5,9.8,24.2h-21.9c-0.2-3.1-0.6-6.8-2.9-9.5
		c-1.7-2.3-4.4-3.7-8.1-3.7c-3.3,0-6.7,1.5-8.5,4.3c-2.9,4.6-3.1,14.9-3.1,30s0.2,25.3,3.1,30.2c1.9,2.7,5.2,4.1,8.5,4.1
		c3.8,0,6.5-1.4,8.1-3.5c2.3-2.7,2.7-6.2,2.9-9.7h21.9C499.1,117.7,496.2,126.4,490.1,132z M546.6,138V64.7
		c0-7.9-4.8-11.8-10.8-11.8S525,56.8,525,64.7V138h-22.1V0.3H525v42.3c1.7-2.1,4.2-4.3,6.5-5.4c3.1-1.7,7.1-2.7,11-2.7
		c9,0,15,2.5,20,7.9c4.4,4.6,6.3,10.2,6.3,22V138H546.6z"/>
	<rect x="242.1" y="0.3" class="st0" width="22.1" height="22.7"/>
</g>
</svg>
