<svg xmlns="http://www.w3.org/2000/svg" xmlns:xlink="http://www.w3.org/1999/xlink" width="280" height="280" viewBox="0 0 280 280">
    <defs>
        <rect id="a" width="280" height="280" rx="140"/>
        <path id="c" d="M0 .062h110.89V121H0z"/>
        <path id="e" d="M.053.011h78.732v36.927H.053z"/>
        <path id="g" d="M.118.262h95.849v36.623H.118z"/>
    </defs>
    <g fill="none" fill-rule="evenodd">
        <rect width="280" height="280" fill="#F0FAF9" rx="140"/>
        <mask id="b" fill="#fff">
            <use xlink:href="#a"/>
        </mask>
        <g mask="url(#b)">
            <path fill="#F397D6" d="M92.97 197s17.515-15.978 15.344-20.121c-1.355-2.585-3.81-2.038-5.228-1.097C95.856 180.58 74.99 191.395 64.5 199"/>
            <path fill="#F397D6" d="M98.97 202s17.515-15.978 15.344-20.121c-1.355-2.585-3.81-2.038-5.228-1.097C101.856 185.58 80.99 196.395 70.5 204"/>
            <g transform="translate(4.5 175)">
                <mask id="d" fill="#fff">
                    <use xlink:href="#c"/>
                </mask>
                <path fill="#F397D6" d="M91.648 2.008c-1.35-2.604-4.14-2.09-5.663-1.33-7.309 3.647-22.68 8.527-34.715 17.513C25.19 37.666 1.88 74.45 0 78.486L37.185 121s15.912-25.514 20.194-33.613c3.148-5.955 16.104-10.229 25.24-19.153C91.754 59.31 110.89 21.31 110.89 21.31L80.696 17.95S93.812 6.182 91.648 2.008" mask="url(#d)"/>
            </g>
            <path stroke="#CC177E" stroke-linecap="round" stroke-linejoin="round" stroke-width="2.876" d="M94.5 182c-15.842 9.565-22.105 15.663-28 22M106.5 182c-14.06 11.683-31.879 29.884-36 38"/>
            <path fill="#00ABA6" d="M225.692 231H77.308c-2.656 0-4.808-2.132-4.808-4.763v-41.474c0-2.63 2.152-4.763 4.808-4.763h148.384c2.656 0 4.808 2.132 4.808 4.763v41.474c0 2.63-2.152 4.763-4.808 4.763"/>
            <path fill="#FFF" d="M106.332 211.262c.844 0 1.53-.235 2.057-.706.527-.47.802-1.096.823-1.876h4.288a6.012 6.012 0 0 1-.95 3.232c-.622.979-1.474 1.738-2.555 2.278-1.081.54-2.276.81-3.584.81-2.447 0-4.377-.788-5.79-2.366-1.414-1.578-2.121-3.757-2.121-6.538v-.304c0-2.674.701-4.808 2.104-6.402 1.403-1.593 3.328-2.39 5.775-2.39 2.142 0 3.859.618 5.151 1.853 1.292 1.235 1.949 2.88 1.97 4.933h-4.288c-.021-.903-.296-1.637-.823-2.201-.528-.565-1.224-.847-2.089-.847-1.065 0-1.87.394-2.413 1.181-.543.788-.814 2.065-.814 3.832v.482c0 1.789.268 3.075.807 3.857.538.781 1.355 1.172 2.452 1.172M128.868 198.309l.145 1.866c1.236-1.45 2.907-2.175 5.013-2.175 2.246 0 3.788.848 4.626 2.545 1.225-1.697 2.971-2.545 5.239-2.545 1.89 0 3.298.527 4.223 1.582.924 1.054 1.386 2.64 1.386 4.759V215h-4.674v-10.644c0-.946-.194-1.638-.58-2.075-.387-.437-1.07-.656-2.048-.656-1.397 0-2.364.638-2.9 1.913l.015 11.462h-4.658v-10.629c0-.966-.2-1.666-.597-2.098-.397-.432-1.074-.648-2.03-.648-1.322 0-2.279.525-2.87 1.574V215H124.5v-16.691h4.368zM158.668 211.455c.71 0 1.364-.153 1.963-.457.599-.306 1.042-.715 1.33-1.228v-2.984h-1.796c-2.406 0-3.686.802-3.842 2.407l-.016.272c0 .578.21 1.054.632 1.428.42.375.998.562 1.73.562zm3.976 3.224c-.222-.417-.383-.936-.483-1.556-1.164 1.251-2.677 1.877-4.54 1.877-1.763 0-3.224-.491-4.383-1.476-1.159-.984-1.738-2.224-1.738-3.722 0-1.84.707-3.25 2.12-4.235 1.414-.984 3.457-1.481 6.13-1.492h2.212v-.995c0-.802-.214-1.444-.64-1.925-.428-.481-1.101-.722-2.022-.722-.81 0-1.444.187-1.904.562-.46.374-.69.888-.69 1.54h-4.807c0-1.005.322-1.936.965-2.792.643-.855 1.552-1.526 2.728-2.013 1.175-.486 2.494-.73 3.958-.73 2.218 0 3.978.538 5.28 1.612 1.303 1.075 1.955 2.586 1.955 4.532v7.524c.01 1.648.25 2.894.715 3.739v.272h-4.856zM170.544 193.371c0-.69.222-1.257.665-1.703.444-.446 1.048-.668 1.813-.668.765 0 1.37.222 1.813.668.443.446.665 1.013.665 1.703 0 .7-.227 1.273-.68 1.719-.455.445-1.054.668-1.798.668-.745 0-1.344-.223-1.797-.668-.454-.446-.681-1.019-.681-1.719zm4.788 4.456v18.157c0 1.9-.485 3.376-1.453 4.433-.97 1.055-2.366 1.583-4.192 1.583-.765 0-1.494-.09-2.187-.27v-3.645c.53.096.994.144 1.392.144 1.336 0 2.004-.738 2.004-2.213v-18.19h4.436zM183.293 206.169c0 1.65.32 2.911.962 3.783.641.874 1.56 1.31 2.753 1.31 1.161 0 2.068-.431 2.72-1.294.653-.862.979-2.24.979-4.137 0-1.617-.326-2.87-.979-3.76-.652-.888-1.57-1.333-2.753-1.333-1.172 0-2.079.442-2.72 1.326-.641.883-.962 2.252-.962 4.105zm-4.793-.33c0-1.721.343-3.256 1.028-4.604a7.379 7.379 0 0 1 2.96-3.128c1.289-.738 2.784-1.107 4.487-1.107 2.421 0 4.398.717 5.93 2.15 1.53 1.433 2.385 3.38 2.562 5.84l.033 1.186c0 2.664-.769 4.8-2.305 6.41-1.537 1.61-3.6 2.414-6.187 2.414s-4.652-.802-6.194-2.406c-1.543-1.605-2.314-3.787-2.314-6.546v-.208zM207.435 202.49a13.644 13.644 0 0 0-1.7-.124c-1.786 0-2.957.57-3.513 1.712V215H197.5v-16.691h4.46l.131 1.99c.948-1.532 2.26-2.299 3.938-2.299.523 0 1.013.067 1.471.2l-.065 4.29z"/>
            <path fill="#F397D6" d="M42.5 219.742c.583-.194 9.554-12.07 14.023-16.915 4.433-4.806 26.344-14.87 26.53-14.956 2.9-1.324 8.057-2.584.576 7.882l-.135.19c-3.493 4.91-7.44 7.302-8.246 13.269-1.562 11.543-.703 21.866-22.207 34.788L42.5 219.742z"/>
            <path stroke="#CC177E" stroke-linecap="round" stroke-linejoin="round" stroke-width="2" d="M72.5 193s-18.19 10.062-20 15M73.5 222s-5.052 13.606-14 18"/>
            <g transform="translate(30.5 34)">
                <mask id="f" fill="#fff">
                    <use xlink:href="#e"/>
                </mask>
                <path fill="#00414B" d="M75.936 36.938H2.9c-1.573 0-2.848-1.299-2.848-2.9V2.91c0-1.602 1.275-2.9 2.848-2.9h73.035c1.573 0 2.849 1.298 2.849 2.9v31.127c0 1.601-1.276 2.9-2.85 2.9" mask="url(#f)"/>
            </g>
            <path fill="#FFF" d="M54.454 50.169a9.448 9.448 0 0 0-1.19-.087c-1.25 0-2.07.402-2.458 1.208V59H47.5V47.218h3.122l.092 1.404C51.377 47.541 52.296 47 53.47 47c.366 0 .709.047 1.029.141l-.046 3.028zM58.883 53.622c0 1.191.227 2.102.68 2.733.452.63 1.1.945 1.943.945.82 0 1.46-.311 1.92-.934.46-.623.69-1.618.69-2.988 0-1.168-.23-2.073-.69-2.715-.46-.642-1.109-.963-1.944-.963-.827 0-1.467.319-1.92.957-.452.638-.679 1.627-.679 2.965zm-3.383-.238c0-1.243.242-2.352.726-3.325a5.28 5.28 0 0 1 2.09-2.26c.909-.533 1.964-.799 3.166-.799 1.71 0 3.105.518 4.186 1.553 1.08 1.035 1.684 2.44 1.809 4.217l.023.858c0 1.923-.543 3.466-1.627 4.628C64.788 59.42 63.333 60 61.506 60c-1.826 0-3.284-.58-4.373-1.738-1.089-1.159-1.633-2.734-1.633-4.727v-.15zM74.244 57.3c.618 0 1.121-.17 1.508-.51.387-.34.588-.791.603-1.355H79.5a4.293 4.293 0 0 1-.696 2.335 4.594 4.594 0 0 1-1.874 1.645c-.793.39-1.67.585-2.628.585-1.795 0-3.21-.57-4.247-1.709-1.037-1.14-1.555-2.713-1.555-4.722v-.22c0-1.93.514-3.472 1.543-4.623 1.029-1.15 2.44-1.726 4.235-1.726 1.57 0 2.83.446 3.777 1.338.948.892 1.43 2.08 1.445 3.563h-3.145c-.015-.652-.216-1.182-.603-1.59-.387-.407-.897-.611-1.532-.611-.781 0-1.37.284-1.77.852-.398.57-.597 1.492-.597 2.768v.348c0 1.292.197 2.22.592 2.785.395.565.994.847 1.799.847M85.81 54.197l-1.14 1.15V59H81.5V42h3.17v9.419l.614-.797 3.038-3.597h3.805l-4.288 4.991L92.5 59h-3.641z"/>
            <g transform="translate(160.5 82)">
                <mask id="h" fill="#fff">
                    <use xlink:href="#g"/>
                </mask>
                <path fill="#CC177E" d="M92.816 36.885H3.269A3.158 3.158 0 0 1 .12 33.72V3.427A3.158 3.158 0 0 1 3.268.262h89.547a3.158 3.158 0 0 1 3.15 3.165V33.72a3.158 3.158 0 0 1-3.15 3.165" mask="url(#h)"/>
            </g>
            <path fill="#FFF" d="M180.645 95.218l.105 1.317c.89-1.023 2.092-1.535 3.609-1.535 1.617 0 2.727.599 3.33 1.796.883-1.197 2.14-1.796 3.772-1.796 1.362 0 2.376.372 3.041 1.116.665.744.998 1.864.998 3.36V107h-3.366v-7.514c0-.668-.139-1.156-.417-1.464-.28-.309-.77-.463-1.474-.463-1.006 0-1.703.45-2.09 1.35l.012 8.091h-3.354v-7.503c0-.682-.143-1.176-.429-1.48-.286-.306-.774-.458-1.462-.458-.952 0-1.64.37-2.066 1.11V107H177.5V95.218h3.145zM205.206 105.584c-.84.944-2 1.416-3.483 1.416-1.364 0-2.405-.363-3.123-1.089-.718-.725-1.084-1.79-1.1-3.19V95h3.4v7.62c0 1.229.604 1.843 1.812 1.843 1.153 0 1.945-.37 2.376-1.112V95h3.412v11.782h-3.2l-.094-1.198zM217.148 104.304c0-.41-.21-.732-.627-.968-.417-.235-1.088-.446-2.01-.631-3.07-.626-4.605-1.892-4.605-3.8 0-1.113.475-2.041 1.425-2.787.95-.745 2.194-1.118 3.729-1.118 1.638 0 2.949.375 3.931 1.124.982.75 1.473 1.722 1.473 2.92h-3.448c0-.48-.159-.875-.477-1.188-.318-.313-.815-.47-1.491-.47-.581 0-1.03.128-1.348.383-.319.255-.478.58-.478.973 0 .371.181.67.543.898.362.228.973.425 1.831.591.86.167 1.583.353 2.172.562 1.821.649 2.732 1.773 2.732 3.372 0 1.143-.505 2.068-1.515 2.775-1.01.707-2.315 1.06-3.913 1.06-1.082 0-2.043-.187-2.882-.562-.84-.375-1.497-.888-1.974-1.541-.477-.653-.716-1.357-.716-2.115h3.269c.032.595.258 1.051.68 1.368.422.317.986.475 1.694.475.66 0 1.16-.122 1.497-.365.339-.244.508-.562.508-.956M222.71 107h3.58V94.826h-3.58V107zm-.21-15.324c0-.487.18-.888.537-1.203.358-.316.846-.473 1.463-.473.61 0 1.095.157 1.457.473.362.315.543.716.543 1.203 0 .495-.183.9-.55 1.216-.366.315-.85.472-1.45.472s-1.084-.157-1.45-.472a1.53 1.53 0 0 1-.55-1.216zM234.244 105.3c.618 0 1.121-.17 1.508-.51.387-.34.588-.791.603-1.355h3.145a4.292 4.292 0 0 1-.696 2.335 4.59 4.59 0 0 1-1.874 1.645c-.793.39-1.67.585-2.628.585-1.795 0-3.21-.57-4.247-1.709-1.037-1.14-1.555-2.713-1.555-4.722v-.22c0-1.93.514-3.472 1.543-4.623 1.029-1.15 2.44-1.726 4.235-1.726 1.57 0 2.83.446 3.777 1.338.948.892 1.43 2.08 1.445 3.563h-3.145c-.015-.652-.216-1.182-.603-1.59-.387-.408-.897-.611-1.532-.611-.781 0-1.37.284-1.769.852-.398.57-.598 1.491-.598 2.768v.348c0 1.292.197 2.22.592 2.785.395.565.994.847 1.799.847"/>
            <path fill="#F6511D" d="M147.96 118H34.04c-1.955 0-3.54-1.565-3.54-3.496V85.495c0-1.93 1.585-3.495 3.54-3.495h113.92c1.955 0 3.54 1.565 3.54 3.495v29.01c0 1.93-1.585 3.495-3.54 3.495"/>
            <path fill="#FFF" d="M56.5 107h-3.19V94.775L49.5 95.95v-2.58L56.158 91h.342zM73.5 107H61.839v-2.146l5.503-5.442c.756-.766 1.315-1.435 1.677-2.006.362-.57.543-1.112.543-1.625 0-.701-.19-1.253-.572-1.654-.382-.4-.927-.601-1.636-.601-.764 0-1.365.244-1.805.732-.44.487-.66 1.129-.66 1.924H61.5c0-.961.247-1.84.742-2.634.495-.795 1.194-1.419 2.097-1.87.904-.452 1.928-.678 3.073-.678 1.753 0 3.114.39 4.084 1.17.97.781 1.455 1.883 1.455 3.307 0 .78-.218 1.576-.654 2.385-.437.81-1.185 1.752-2.244 2.83l-3.868 3.782H73.5V107zM82.923 95.784c0-.644-.168-1.16-.503-1.551-.336-.39-.809-.585-1.42-.585-.604 0-1.073.19-1.409.568-.335.379-.503.902-.503 1.568 0 .66.168 1.19.503 1.591.336.402.809.602 1.42.602.611 0 1.083-.2 1.414-.602.332-.401.498-.932.498-1.591m.335 7.216c0-.72-.205-1.296-.615-1.727-.41-.432-.961-.648-1.654-.648-.686 0-1.234.214-1.644.642-.41.428-.615 1.006-.615 1.733 0 .705.202 1.273.604 1.705.403.431.962.647 1.677.647.7 0 1.25-.208 1.65-.625.397-.416.597-.992.597-1.727m2.895-7.375c0 .803-.197 1.515-.592 2.136a4.29 4.29 0 0 1-1.632 1.49c.79.385 1.416.918 1.878 1.595.462.679.693 1.476.693 2.393 0 1.47-.492 2.63-1.475 3.483-.984.852-2.322 1.278-4.014 1.278-1.692 0-3.033-.428-4.024-1.284-.992-.856-1.487-2.015-1.487-3.477 0-.917.23-1.716.693-2.398a4.654 4.654 0 0 1 1.867-1.59 4.243 4.243 0 0 1-1.627-1.49c-.39-.62-.586-1.333-.586-2.136 0-1.41.462-2.532 1.386-3.37C78.157 91.42 79.413 91 81 91c1.58 0 2.834.415 3.762 1.245.927.829 1.391 1.956 1.391 3.38M96.24 100.75c0-1.194-.196-2.066-.587-2.616-.391-.55-.974-.825-1.749-.825-1.038 0-1.752.412-2.144 1.235v4.665c.4.83 1.121 1.245 2.167 1.245 1.053 0 1.745-.502 2.076-1.508.158-.48.237-1.212.237-2.195zm3.26.23c0 1.894-.418 3.37-1.252 4.43-.835 1.06-2.001 1.59-3.498 1.59-1.324 0-2.38-.492-3.17-1.475l-.147 1.257H88.5V90h3.26v6.02c.753-.852 1.742-1.278 2.968-1.278 1.489 0 2.657.53 3.503 1.59.846 1.059 1.269 2.55 1.269 4.474v.174zM110.236 101.16c0-1.128-.201-1.998-.604-2.61-.403-.612-.988-.918-1.756-.918-1.024 0-1.728.388-2.112 1.164v4.961c.399.8 1.11 1.199 2.134 1.199 1.559 0 2.338-1.266 2.338-3.797zm3.264.234c0 1.867-.427 3.362-1.282 4.486-.854 1.123-2.008 1.685-3.461 1.685-1.235 0-2.233-.425-2.993-1.277V112H102.5V95.224h3.027l.113 1.187c.79-.94 1.822-1.411 3.094-1.411 1.506 0 2.677.552 3.512 1.657.836 1.105 1.254 2.628 1.254 4.57v.167zM118.645 95.218l.105 1.317c.89-1.023 2.092-1.535 3.609-1.535 1.617 0 2.727.599 3.33 1.796.883-1.197 2.14-1.796 3.773-1.796 1.361 0 2.375.372 3.04 1.116.665.744.998 1.864.998 3.36V107h-3.366v-7.514c0-.668-.139-1.156-.417-1.464-.279-.309-.77-.463-1.474-.463-1.006 0-1.702.45-2.09 1.35l.013 8.091h-3.354v-7.503c0-.682-.144-1.176-.43-1.48-.286-.306-.774-.458-1.462-.458-.952 0-1.64.37-2.066 1.11V107H115.5V95.218h3.145z"/>
            <path fill="#F0AD0D" d="M214.296 71h-92.592c-1.77 0-3.204-1.415-3.204-3.161V38.16c0-1.746 1.435-3.161 3.204-3.161h92.592c1.77 0 3.204 1.415 3.204 3.161V67.84c0 1.746-1.435 3.161-3.204 3.161"/>
            <path fill="#FFF" d="M139.9 48.33c.902-1.017 2.035-1.527 3.4-1.527 2.76 0 4.16 1.51 4.2 4.527V59h-3.4v-7.581c0-.687-.157-1.194-.47-1.522-.314-.328-.836-.493-1.565-.493-.996 0-1.718.362-2.165 1.085V59h-3.4V42h3.4v6.33zM154.428 57.44c.488 0 .938-.11 1.35-.33.411-.22.716-.516.914-.887v-2.155h-1.235c-1.654 0-2.534.58-2.641 1.738l-.011.197c0 .417.144.76.434 1.031.29.27.686.405 1.19.405zm2.733 2.328c-.153-.3-.263-.675-.331-1.124-.801.904-1.842 1.356-3.122 1.356-1.212 0-2.217-.355-3.013-1.066-.797-.71-1.195-1.606-1.195-2.688 0-1.328.486-2.348 1.458-3.059.972-.71 2.376-1.07 4.214-1.077h1.52v-.719c0-.579-.146-1.042-.44-1.39-.293-.348-.757-.521-1.39-.521-.556 0-.992.135-1.309.405-.316.27-.474.642-.474 1.113h-3.305c0-.726.221-1.399.664-2.016.442-.618 1.067-1.103 1.875-1.455.808-.35 1.715-.527 2.721-.527 1.525 0 2.735.388 3.63 1.165.896.776 1.344 1.867 1.344 3.273v5.434c.008 1.19.172 2.09.492 2.7v.196h-3.339zM170.236 53.16c0-1.128-.201-1.997-.604-2.61-.403-.612-.988-.918-1.756-.918-1.024 0-1.728.388-2.112 1.164v4.961c.399.8 1.11 1.199 2.134 1.199 1.559 0 2.338-1.266 2.338-3.797zm3.264.234c0 1.867-.427 3.363-1.282 4.486-.854 1.123-2.008 1.685-3.461 1.685-1.235 0-2.233-.425-2.993-1.277V64H162.5V47.224h3.027l.113 1.187c.79-.94 1.822-1.411 3.094-1.411 1.506 0 2.677.553 3.512 1.657.836 1.105 1.254 2.629 1.254 4.57v.167zM183.236 53.16c0-1.128-.201-1.997-.604-2.61-.403-.612-.988-.918-1.756-.918-1.024 0-1.728.388-2.112 1.164v4.961c.399.8 1.11 1.199 2.134 1.199 1.559 0 2.338-1.266 2.338-3.797zm3.264.234c0 1.867-.427 3.363-1.282 4.486-.854 1.123-2.008 1.685-3.461 1.685-1.235 0-2.233-.425-2.993-1.277V64H175.5V47.224h3.027l.113 1.187c.79-.94 1.822-1.411 3.094-1.411 1.506 0 2.677.553 3.512 1.657.836 1.105 1.254 2.629 1.254 4.57v.167zM193.512 54.532L195.86 47h3.64l-5.108 13.99-.282.638C193.351 63.209 192.1 64 190.353 64a5.58 5.58 0 0 1-1.503-.213v-2.45l.517.01c.642 0 1.121-.093 1.438-.279.317-.186.566-.496.746-.929l.399-.996L187.5 47h3.652l2.36 7.532z"/>
            <path fill="#95115C" d="M100.726 167H33.274a2.77 2.77 0 0 1-2.774-2.767v-31.466A2.77 2.77 0 0 1 33.274 130h67.452a2.77 2.77 0 0 1 2.774 2.767v31.466a2.77 2.77 0 0 1-2.774 2.767"/>
            <path fill="#FFF" d="M56.94 149.522c0-1.194-.22-2.115-.66-2.763-.44-.648-1.078-.973-1.915-.973-1.118 0-1.885.412-2.304 1.234v5.253c.435.846 1.211 1.268 2.328 1.268 1.7 0 2.55-1.34 2.55-4.02zm3.56.249c0 1.976-.466 3.559-1.398 4.749-.932 1.19-2.191 1.784-3.776 1.784-1.348 0-2.436-.45-3.265-1.351V161H48.5v-17.763h3.302l.123 1.257c.863-.996 1.988-1.494 3.376-1.494 1.643 0 2.92.585 3.831 1.755.912 1.17 1.368 2.783 1.368 4.838v.178zM65.883 149.622c0 1.191.226 2.102.68 2.733.452.63 1.1.945 1.943.945.82 0 1.459-.31 1.92-.934.46-.623.69-1.618.69-2.988 0-1.168-.23-2.073-.69-2.715-.461-.642-1.109-.964-1.944-.964-.827 0-1.467.32-1.92.958-.453.638-.679 1.627-.679 2.965zm-3.383-.238c0-1.243.242-2.352.726-3.325a5.278 5.278 0 0 1 2.09-2.26c.909-.533 1.964-.799 3.166-.799 1.71 0 3.105.518 4.186 1.552 1.08 1.036 1.684 2.442 1.808 4.218l.024.858c0 1.923-.543 3.466-1.627 4.628-1.085 1.163-2.54 1.744-4.367 1.744s-3.284-.58-4.373-1.738c-1.089-1.159-1.633-2.734-1.633-4.727v-.151zM84.94 149.522c0-1.194-.22-2.115-.66-2.763-.44-.648-1.078-.973-1.915-.973-1.118 0-1.885.412-2.304 1.234v5.253c.435.846 1.211 1.268 2.328 1.268 1.7 0 2.55-1.34 2.55-4.02zm3.56.249c0 1.976-.466 3.559-1.398 4.749-.932 1.19-2.191 1.784-3.776 1.784-1.348 0-2.436-.45-3.265-1.351V161H76.5v-17.763h3.302l.123 1.257c.863-.996 1.988-1.494 3.376-1.494 1.643 0 2.92.585 3.831 1.755.912 1.17 1.368 2.783 1.368 4.838v.178z"/>
            <path fill="#AF7E0A" d="M246.613 168H116.387c-2.147 0-3.887-1.716-3.887-3.833v-30.334c0-2.117 1.74-3.833 3.887-3.833h130.226c2.147 0 3.887 1.716 3.887 3.833v30.334c0 2.117-1.74 3.833-3.887 3.833"/>
            <path fill="#FFF" d="M138.454 146.433a8.728 8.728 0 0 0-1.19-.094c-1.25 0-2.07.436-2.458 1.309V156H131.5v-12.764h3.123l.091 1.522c.664-1.172 1.582-1.758 2.757-1.758.366 0 .709.051 1.029.153l-.046 3.28zM142.883 150.622c0 1.191.226 2.102.68 2.733.452.63 1.1.945 1.943.945.82 0 1.459-.31 1.92-.934.46-.623.69-1.618.69-2.988 0-1.168-.23-2.073-.69-2.715-.461-.642-1.109-.964-1.944-.964-.827 0-1.467.32-1.92.958-.453.638-.679 1.627-.679 2.965zm-3.383-.238c0-1.243.242-2.352.726-3.325a5.278 5.278 0 0 1 2.09-2.26c.909-.533 1.964-.799 3.166-.799 1.71 0 3.105.518 4.186 1.552 1.08 1.036 1.684 2.442 1.808 4.218l.024.858c0 1.923-.543 3.466-1.627 4.628-1.085 1.163-2.54 1.744-4.367 1.744s-3.284-.58-4.373-1.738c-1.089-1.159-1.633-2.734-1.633-4.727v-.151zM156.82 143.236l.11 1.427c.94-1.109 2.209-1.663 3.81-1.663 1.707 0 2.879.649 3.516 1.946.93-1.297 2.258-1.946 3.98-1.946 1.438 0 2.508.403 3.21 1.21.703.806 1.054 2.018 1.054 3.638V156h-3.552v-8.14c0-.723-.148-1.252-.441-1.586-.295-.335-.813-.502-1.556-.502-1.062 0-1.797.488-2.205 1.463l.012 8.765h-3.54v-8.128c0-.74-.152-1.274-.454-1.604-.302-.33-.817-.496-1.543-.496-1.005 0-1.732.401-2.18 1.203V156H153.5v-12.764h3.32zM179.876 154.44a3.3 3.3 0 0 0 1.472-.33c.45-.22.782-.517.998-.887v-2.155H181c-1.805 0-2.765.579-2.882 1.738l-.012.197c0 .417.158.76.474 1.03.316.271.748.406 1.297.406zm2.981 2.328c-.166-.301-.286-.676-.361-1.124-.873.904-2.009 1.356-3.406 1.356-1.322 0-2.418-.355-3.287-1.066-.869-.71-1.303-1.606-1.303-2.688 0-1.328.53-2.348 1.59-3.059 1.06-.71 2.593-1.07 4.597-1.078h1.66v-.718c0-.58-.161-1.043-.481-1.39-.32-.348-.826-.522-1.516-.522-.607 0-1.083.136-1.428.406s-.518.641-.518 1.112H174.8c0-.726.242-1.398.724-2.016.482-.618 1.164-1.102 2.045-1.454.882-.351 1.872-.527 2.97-.527 1.662 0 2.983.388 3.96 1.164.977.777 1.466 1.868 1.466 3.274v5.434c.008 1.19.187 2.09.536 2.7v.196h-3.643zM191.703 143.236l.106 1.475c.91-1.14 2.132-1.711 3.663-1.711 1.35 0 2.356.397 3.015 1.191.66.795.997 1.982 1.013 3.563V156h-3.404v-8.164c0-.723-.157-1.248-.47-1.574-.315-.327-.837-.49-1.567-.49-.958 0-1.677.41-2.155 1.227V156H188.5v-12.764h3.203zM207.061 141v3.111h2.302v2.48h-2.302v6.315c0 .468.096.803.287 1.006.19.203.555.304 1.095.304.398 0 .75-.027 1.057-.082v2.562a7.84 7.84 0 0 1-2.177.304c-2.522 0-3.807-1.197-3.857-3.59v-6.82H201.5v-2.479h1.966V141h3.595zM210.71 156h3.58v-12.89h-3.58V156zm-.21-16.225c0-.516.179-.94.537-1.275.358-.333.846-.5 1.463-.5.609 0 1.095.167 1.457.5.362.334.543.759.543 1.275 0 .524-.183.953-.55 1.286-.366.334-.85.5-1.45.5s-1.084-.166-1.45-.5c-.367-.333-.55-.762-.55-1.286zM223.244 154.3c.618 0 1.121-.17 1.508-.51.387-.34.588-.791.604-1.355h3.144a4.29 4.29 0 0 1-.696 2.335 4.593 4.593 0 0 1-1.874 1.645c-.793.39-1.67.585-2.628.585-1.795 0-3.21-.57-4.247-1.71-1.037-1.138-1.555-2.712-1.555-4.72v-.22c0-1.931.514-3.472 1.543-4.623 1.029-1.151 2.44-1.727 4.235-1.727 1.57 0 2.83.446 3.777 1.338.948.892 1.43 2.08 1.445 3.563h-3.144c-.016-.652-.217-1.182-.604-1.59-.387-.407-.897-.611-1.532-.611-.781 0-1.37.284-1.77.852-.398.57-.597 1.492-.597 2.768v.348c0 1.292.198 2.22.592 2.785.394.565.994.847 1.799.847"/>
        </g>
    </g>
</svg>
