<svg xmlns="http://www.w3.org/2000/svg" xmlns:xlink="http://www.w3.org/1999/xlink" width="280" height="280" viewBox="0 0 280 280">
    <defs>
        <rect id="a" width="280" height="280" rx="140"/>
        <path id="c" d="M.007.238H190.82V40H.007z"/>
        <path id="e" d="M0 0h141.97v87.904H0z"/>
    </defs>
    <g fill="none" fill-rule="evenodd">
        <rect width="280" height="280" fill="#F0FAF9" rx="140"/>
        <mask id="b" fill="#fff">
            <use xlink:href="#a"/>
        </mask>
        <path fill="#FCEFE4" d="M31-8h218v293H31z" mask="url(#b)"/>
        <g mask="url(#b)">
            <path fill="#F6511D" d="M232.263 175H46.737A2.746 2.746 0 0 1 44 172.244v-34.488A2.746 2.746 0 0 1 46.737 135h185.526a2.746 2.746 0 0 1 2.737 2.756v34.488a2.746 2.746 0 0 1-2.737 2.756"/>
            <path fill="#F8805A" d="M163.232 156H83.768c-.977 0-1.768-.762-1.768-1.702v-8.595c0-.94.791-1.703 1.768-1.703h79.464c.977 0 1.768.762 1.768 1.703v8.595c0 .94-.791 1.702-1.768 1.702M225.35 168H83.65c-.912 0-1.65-.753-1.65-1.682v-3.636c0-.929.738-1.682 1.65-1.682h141.7c.912 0 1.65.753 1.65 1.682v3.636c0 .929-.738 1.682-1.65 1.682"/>
            <path fill="#B33B16" d="M70.563 168H55.437A4.437 4.437 0 0 1 51 163.563v-15.125A4.437 4.437 0 0 1 55.437 144h15.126A4.437 4.437 0 0 1 75 148.438v15.125A4.437 4.437 0 0 1 70.563 168"/>
            <path fill="#F8805A" d="M69.337 148.093v.007l-8.264 1.597a.133.133 0 0 0-.112.129v9.874c-.604-.285-1.527-.233-2.397.196-1.208.595-1.852 1.689-1.439 2.443.414.754 1.728.882 2.937.286 1.008-.497 1.67-1.343 1.665-2.044v-8.732c0-.055.041-.102.098-.113l7.366-1.417c.075-.015.146.04.146.113v7.283c-.604-.285-1.527-.233-2.397.196-1.208.595-1.853 1.69-1.44 2.443.414.754 1.729.882 2.937.286 1.009-.497 1.622-1.34 1.557-2.044H70v-10.464c0-.083-.08-.145-.165-.13l-.498.09z"/>
            <path fill="#CC177E" d="M232.263 218H46.737A2.746 2.746 0 0 1 44 215.244v-34.488A2.746 2.746 0 0 1 46.737 178h185.526a2.746 2.746 0 0 1 2.737 2.756v34.488a2.746 2.746 0 0 1-2.737 2.756"/>
            <path fill="#F397D6" d="M163.232 198H83.768c-.977 0-1.768-.762-1.768-1.702v-8.596c0-.94.791-1.702 1.768-1.702h79.464c.977 0 1.768.762 1.768 1.702v8.596c0 .94-.791 1.702-1.768 1.702M225.35 210H83.65c-.912 0-1.65-.753-1.65-1.682v-3.636c0-.929.738-1.682 1.65-1.682h141.7c.912 0 1.65.753 1.65 1.682v3.636c0 .929-.738 1.682-1.65 1.682"/>
            <path fill="#95115C" d="M71.563 210H56.437A4.437 4.437 0 0 1 52 205.562v-15.124A4.437 4.437 0 0 1 56.437 186h15.126A4.437 4.437 0 0 1 76 190.438v15.124A4.437 4.437 0 0 1 71.563 210"/>
            <path fill="#F397D6" d="M65.372 193.471c-.551-.255-.915-.76-1.12-1.315a3.862 3.862 0 0 1-.184-.71c-.017-.108-.037-.841-.045-.95-.008-.09-.001-.197-.034-.282-.063-.16-.41-.25-.57-.2-.124.038-.122.197-.113.301.013.159.027.94.03 1.1l.013.964c.005.42.01.842.017 1.262l.02 1.454.02 1.542.02 1.523.02 1.4.015 1.172.011.837.006.4v.019c-.695-.328-1.748-.25-2.732.279-1.367.733-2.08 2.05-1.593 2.941.487.892 1.683 1.069 3.05.335 1.14-.612 1.879-1.634 1.86-2.47l-.139-8.2c1.682-.08 3.277 1.913 3.277 1.913 1.617 2.715-.884 5.488-.884 5.488-.16.52.183.406.183.406.892-.553 1.91-2.268 1.91-2.268 2.341-4.03-3.038-6.94-3.038-6.94"/>
            <g transform="translate(44 220)">
                <mask id="d" fill="#fff">
                    <use xlink:href="#c"/>
                </mask>
                <path fill="#F0AD0D" d="M188.086 40H2.74a2.737 2.737 0 0 1-2.734-2.74V2.978A2.737 2.737 0 0 1 2.74.237h185.345a2.737 2.737 0 0 1 2.734 2.74v34.284A2.737 2.737 0 0 1 188.086 40" mask="url(#d)"/>
            </g>
            <path fill="#F4C350" d="M163.232 241H83.768c-.977 0-1.768-.762-1.768-1.702v-8.596c0-.94.791-1.702 1.768-1.702h79.464c.977 0 1.768.762 1.768 1.702v8.596c0 .94-.791 1.702-1.768 1.702M225.35 253H83.65c-.912 0-1.65-.753-1.65-1.682v-3.636c0-.929.738-1.682 1.65-1.682h141.7c.912 0 1.65.753 1.65 1.682v3.636c0 .929-.738 1.682-1.65 1.682"/>
            <path fill="#AF7E0A" d="M71.563 252H56.437A4.437 4.437 0 0 1 52 247.562v-15.124A4.437 4.437 0 0 1 56.437 228h15.126A4.437 4.437 0 0 1 76 232.438v15.124A4.437 4.437 0 0 1 71.563 252"/>
            <path fill="#F4C350" d="M65.372 235.471c-.551-.255-.915-.76-1.12-1.315a3.855 3.855 0 0 1-.184-.71c-.017-.108-.037-.841-.045-.95-.008-.09-.001-.197-.034-.282-.063-.161-.41-.25-.57-.2-.124.037-.122.197-.113.3.013.16.027.94.03 1.1l.013.965c.005.42.01.841.017 1.262l.02 1.454.02 1.542.02 1.523.02 1.4.015 1.172.011.838.006.399v.019c-.695-.328-1.748-.25-2.732.279-1.367.733-2.08 2.05-1.593 2.941.487.892 1.683 1.068 3.05.335 1.14-.612 1.879-1.634 1.86-2.47l-.139-8.2c1.682-.08 3.277 1.913 3.277 1.913 1.617 2.715-.884 5.488-.884 5.488-.16.52.183.406.183.406.892-.553 1.91-2.268 1.91-2.268 2.341-4.03-3.038-6.94-3.038-6.94"/>
            <path fill="#00ABA6" d="M230.336 133.927L62.942 93.053a2.552 2.552 0 0 1-1.87-3.081l7.522-31.024a2.541 2.541 0 0 1 3.07-1.875L239.06 97.947a2.552 2.552 0 0 1 1.868 3.081l-7.52 31.024a2.542 2.542 0 0 1-3.071 1.875"/>
            <path fill="#73D1CE" d="M173.007 101.953l-71.752-17.576a1.655 1.655 0 0 1-1.208-1.998l1.961-8.116a1.642 1.642 0 0 1 1.985-1.216l71.752 17.577a1.654 1.654 0 0 1 1.208 1.997l-1.961 8.116a1.643 1.643 0 0 1-1.985 1.216M226.318 125.957L98.172 95.17a1.515 1.515 0 0 1-1.128-1.83l.784-3.184a1.536 1.536 0 0 1 1.855-1.114l128.144 30.786a1.514 1.514 0 0 1 1.13 1.83l-.785 3.183a1.536 1.536 0 0 1-1.854 1.115"/>
            <path fill="#007D79" d="M86.654 91.883l-13.533-3.292a4.086 4.086 0 0 1-3.004-4.937l3.292-13.533a4.086 4.086 0 0 1 4.937-3.004l13.533 3.293a4.085 4.085 0 0 1 3.004 4.936L91.59 88.879a4.086 4.086 0 0 1-4.936 3.004"/>
            <path fill="#73D1CE" d="M89.405 73.283l-.002.007-7.858-.29a.129.129 0 0 0-.13.097l-.24.966-.243.98-1.814 7.312c-.48-.398-1.33-.55-2.217-.336-1.233.298-2.07 1.184-1.872 1.98.2.796 1.36 1.2 2.594.904 1.03-.248 1.825-.899 1.984-1.557l2.03-8.187a.113.113 0 0 1 .115-.085l7.003.264c.071.003.123.07.106.139l-1.694 6.828c-.48-.398-1.33-.549-2.217-.335-1.233.297-2.07 1.183-1.872 1.98.2.795 1.36 1.2 2.594.903 1.03-.248 1.78-.907 1.886-1.58h.005l2.433-9.81a.127.127 0 0 0-.119-.157l-.472-.023z"/>
            <g transform="translate(-31 19)">
                <mask id="f" fill="#fff">
                    <use xlink:href="#e"/>
                </mask>
                <path fill="#F397D6" d="M61.996 33.702s23.244 5.197 31.647-13.926c9.004-20.49 17.027-23.657 14.304-15.88-2.722 7.778-6.532 18.265-6.532 18.265L121.81 5.075s6.443-3.988 2.8 2.717c-3.644 6.705-16.694 19.727-16.694 19.727l22.038-14.915s8.336-5.253 4.548 1.391c-3.789 6.645-19.742 18.47-19.742 18.47s30.325-5.45 26.947 12.437c-.13.689-.465 1.338-.995 1.795-.853.736-2.112.934-2.475-3.739-.565-7.268-25.134-5.262-32.305 10.322-10.857 23.59 12.044 28.973 16.756 29.226 4.713.252 11.59.147 6.904 4.395C122 93.783 0 63.023 0 63.023L3.681 23.2l58.315 10.502z" mask="url(#f)"/>
            </g>
            <path stroke="#CC177E" stroke-linecap="round" stroke-width="3" d="M71 41l-3 4M77 46l-5 4M84 51.025s-4.857-.589-8 3.975"/>
        </g>
    </g>
</svg>
