<svg xmlns="http://www.w3.org/2000/svg" xmlns:xlink="http://www.w3.org/1999/xlink" width="280" height="280" viewBox="0 0 280 280">
    <defs>
        <rect id="a" width="280" height="280" rx="140"/>
        <path id="c" d="M.274.142h76.238v68.95H.274z"/>
        <path id="e" d="M0 .141h76.238v68.952H0z"/>
        <path id="g" d="M.074 77.048A473.068 473.068 0 0 1 81.936 88.96L99.87 14.226A550.293 550.293 0 0 0 4.083.286L.073 77.049"/>
        <path id="i" d="M.074 77.048A473.068 473.068 0 0 1 81.936 88.96L99.87 14.226A550.293 550.293 0 0 0 4.083.286L.073 77.049"/>
    </defs>
    <g fill="none" fill-rule="evenodd">
        <rect width="280" height="280" fill="#F0FAF9" rx="140"/>
        <mask id="b" fill="#fff">
            <use xlink:href="#a"/>
        </mask>
        <g mask="url(#b)">
            <g transform="translate(203.84 84.922)">
                <mask id="d" fill="#fff">
                    <use xlink:href="#c"/>
                </mask>
                <path fill="#00ABA6" d="M59.472 69.093A465.365 465.365 0 0 0 .274 54.375L9.816.142a520.87 520.87 0 0 1 66.696 16.583l-17.04 52.368z" mask="url(#d)"/>
            </g>
            <path fill="#F6511D" d="M237.155 89.78c-.89.368-1.89.828-2.698 1.456-3.076 2.393-4.91 5.27-5.412 9.422-.27 2.231-.542 3.765-2.727 5.337-2.186 1.57-3.96 1.52-6.563 1.389-3.605-.182-7.298.26-10.429 2.286l-3.768 21.417c.16-.122.337-.239.48-.371 2.81-2.605 4.443-5.594 4.834-9.654.216-2.241.425-3.788 2.527-5.419 2.101-1.63 3.842-1.596 6.426-1.479 4.003.182 8.546-.247 11.62-2.795 3.034-2.514 4.874-5.29 5.441-9.382.308-2.229.586-3.768 2.854-5.277 2.266-1.508 4.105-1.382 6.803-1.101 3.385.353 6.87.317 10.102-1a601.652 601.652 0 0 0-19.49-4.83"/>
            <path fill="#FFF" d="M246.611 109.493a396.69 396.69 0 0 0-2.278-.578 647.515 647.515 0 0 0-13.173-3.111l-.454 2.048-.091.413-2.906 13.099c-.903-.663-2.455-.917-4.039-.557-2.199.5-3.61 1.985-3.172 3.297.438 1.311 2.546 1.959 4.73 1.467 1.823-.41 3.207-1.475 3.444-2.562l3.159-14.055a471.94 471.94 0 0 1 12.927 3.09l-3.202 12.574c-.884-.69-2.43-.994-4.027-.683-2.218.43-3.676 1.87-3.278 3.195.398 1.325 2.49 2.038 4.691 1.616 1.838-.353 3.176-1.39 3.348-2.499l.01.003 3.581-13.92a469.797 469.797 0 0 1 13.755 3.75l-3.623 12.496c-.863-.72-2.401-1.074-4.01-.817-2.235.356-3.741 1.748-3.385 3.085.356 1.338 2.426 2.12 4.645 1.77 1.852-.29 3.305-1.263 3.61-2.333l4.052-13.826.58-1.983.243-.827a607.599 607.599 0 0 0-15.137-4.152"/>
            <g transform="translate(-1.5 84.922)">
                <mask id="f" fill="#fff">
                    <use xlink:href="#e"/>
                </mask>
                <path fill="#F397D6" d="M76.238 54.374a465.374 465.374 0 0 0-59.197 14.719L0 16.725A520.88 520.88 0 0 1 66.696.14l9.542 54.233" mask="url(#f)"/>
            </g>
            <path fill="#CC177E" d="M62.038 113.641c2.341 12.114-7.273 23.113-18.598 25.926-11.315 2.811-25.05-2.37-28.672-14.176-3.888-12.669 6.59-24.26 18.364-27.187 11.788-2.93 26.395 2.44 28.906 15.437"/>
            <path fill="#FFF" d="M39.083 110.255a4.679 4.679 0 0 1-2.84-1.754 6.29 6.29 0 0 1-.684-1.155c-.084-.18-.444-1.458-.51-1.645-.053-.154-.087-.344-.192-.476-.199-.251-.949-.23-1.256-.061-.238.13-.163.41-.099.587.099.271.474 1.634.549 1.913l.453 1.686.593 2.205.683 2.541.723 2.694.714 2.661.655 2.447.55 2.047.391 1.465.187.698c.001.002.006.033.009.033-1.505-.235-3.535.432-5.21 1.861-2.326 1.986-3.066 4.664-1.706 5.966 1.36 1.301 3.725.995 6.028-.966 1.922-1.637 2.91-3.784 2.507-5.242-1.285-4.777-2.572-9.552-3.862-14.326 3.351-.981 7.393 1.777 7.393 1.777 2.913 2.475 1.36 7.574.53 10.075-.243.734.53.629.53.629 1.513-1.386 2.823-4.868 2.823-4.868 2.708-5.873-4.535-9.953-8.96-10.792"/>
            <path fill="#F0AD0D" d="M226.765 155.933a476.3 476.3 0 0 0-82.13-11.916l4.034-76.761A554.135 554.135 0 0 1 244.777 81.2l-18.012 74.733"/>
            <g>
                <g transform="translate(145.5 67)">
                    <mask id="h" fill="#fff">
                        <use xlink:href="#g"/>
                    </mask>
                    <path fill="#CC177E" d="M101.618 70.712c-5.269 19.233-26.795 30.531-45.771 26.901-18.784-3.593-34.94-21.798-33.017-41.496 2.167-22.185 26.045-33.89 46.238-30.277 20.435 3.657 38.481 23.22 32.55 44.872" mask="url(#h)"/>
                </g>
                <g transform="translate(145.5 67)">
                    <mask id="j" fill="#fff">
                        <use xlink:href="#i"/>
                    </mask>
                    <path fill="#F6511D" d="M74.44 33.049c-4.063 20.497-26.672 32.03-46.14 29.744-19.243-2.26-38.923-18.49-38.374-39.2C-9.458.407 15.852-11.926 36.37-9.744c20.785 2.21 42.618 19.856 38.07 42.793" mask="url(#j)"/>
                </g>
            </g>
            <g>
                <path fill="#FFF" d="M203.328 99.757a6.5 6.5 0 0 1-2.742-3.754 8.78 8.78 0 0 1-.281-1.85c-.014-.276.19-2.116.202-2.392.01-.226.066-.49 0-.716-.126-.428-1.107-.792-1.593-.734-.376.045-.425.444-.434.707-.015.402-.241 2.36-.29 2.76l-.293 2.414-.384 3.16-.444 3.641a5340.38 5340.38 0 0 1-.472 3.859l-.466 3.813-.43 3.505-.36 2.932-.258 2.098-.123 1c0 .003-.009.045-.005.047-1.798-1.085-4.753-1.236-7.6-.285-2.686.897-6.471 3.762-5.214 6.855 1.286 3.163 5.725 2.476 8.146 1.846 3.1-.805 5.649-3.386 5.891-5.482.84-6.843 1.674-13.686 2.504-20.53 3.61.676 6.93 3.3 8.567 6.174 2.506 4.4-2.108 10.26-4.609 13.282-.697.842.345 1.09.345 1.09 2.652-.996 6.16-4.795 6.16-4.795 6.18-6.488-.176-15.014-5.817-18.645"/>
                <path fill="#F0AD0D" d="M134.54 143.31a475.467 475.467 0 0 0-81.833 11.959l-17.92-74.636a552.67 552.67 0 0 1 95.664-13.98l4.09 76.657"/>
                <path fill="#FFF" d="M85.139 97.562a6.493 6.493 0 0 1-3.686-2.829 8.778 8.778 0 0 1-.789-1.695c-.09-.263-.412-2.085-.477-2.353-.054-.22-.074-.49-.2-.687-.242-.376-1.287-.448-1.737-.256-.348.15-.283.546-.218.801.099.39.43 2.332.497 2.73l.396 2.4.518 3.14.597 3.62.63 3.836c.209 1.262.416 2.526.624 3.79l.571 3.484.478 2.916.341 2.085.163.995c0 .003.004.046.008.047-2.032-.535-4.912.155-7.382 1.871-2.326 1.616-5.167 5.437-3.087 8.05 2.126 2.671 6.199.76 8.35-.528 2.752-1.648 4.473-4.844 4.118-6.923-1.116-6.803-2.237-13.605-3.361-20.407 3.653-.37 7.575 1.211 9.952 3.509 3.636 3.516.858 10.44-.693 14.045-.432 1.005.636.948.636.948 2.265-1.703 4.56-6.337 4.56-6.337 4.101-7.967-4.376-14.358-10.81-16.252"/>
                <path fill="#00ABA6" d="M186.473 160.673a363.212 363.212 0 0 0-92.613 0c-3.23-35.019-6.457-70.037-9.685-105.056a436.35 436.35 0 0 1 111.984 0l-9.686 105.056"/>
                <path fill="#00414B" d="M141.283 85.48c-18.684-1.132-37.385 3.423-52.807 16.8l5.384 58.393a406.453 406.453 0 0 1 25.47-2.467c4.311-6.53 10.632-8.727 17.284-8.172 3.34.279 6.768.477 10.134.438 14.32-.167 28.536-2.983 41.632-10.486l7.779-84.369a491.463 491.463 0 0 0-27.008-2.74c-.44 9.68-1.723 21.034-7.929 28.015-5.097 5.733-13.565 4.973-19.939 4.588z"/>
                <path fill="#FFF" d="M163.353 75.826a.92.92 0 0 1-.001.029 689.088 689.088 0 0 0-33.035 5.334c-.256.048-.437.244-.433.467l.062 3.686.062 3.74.468 27.892c-2.273-.98-5.75-.67-8.927.921-3.013 1.51-7.008 5.728-4.996 8.934 2 3.19 7.627 2.312 10.8.673 3.626-1.872 6.067-4.91 6.02-7.419l-.366-31.233c-.002-.197.156-.368.38-.41a696.203 696.203 0 0 1 29.08-4.68c.3-.04.573.166.563.428l-1.005 26.033c-2.244-1.106-5.777-.99-9.078.42-3.095 1.323-7.41 5.323-5.55 8.642 1.852 3.305 7.585 2.732 10.885 1.275 3.771-1.665 6.225-4.561 6.09-7.087h.023l1.609-37.397c.012-.295-.296-.531-.641-.49-.805.096-1.207.144-2.01.242"/>
                <g fill="#F0AD0D">
                    <path d="M180.13 138.584a40.04 40.04 0 0 0-2.873-1.211 42.281 42.281 0 0 0-2.966-.973c-.498-.151-1.003-.279-1.506-.413-.507-.117-1.013-.242-1.523-.344a40.646 40.646 0 0 0-3.077-.531c-1.03-.153-2.068-.234-3.104-.307a35.347 35.347 0 0 0-3.115-.07 46.529 46.529 0 0 0-6.196.477c-2.048.29-4.08.66-6.084 1.143-.503.111-1.003.238-1.502.364-.5.125-1 .243-1.494.392-.493.147-.993.27-1.488.41l-1.477.45a326.53 326.53 0 0 0-5.876 1.944c-1.96.674-3.916 1.375-5.955 1.99l-.013.005a.676.676 0 1 1-.614-1.179c3.42-2.652 7.396-4.498 11.533-5.752a49.613 49.613 0 0 1 12.766-2.134c.54-.013 1.078-.047 1.618-.043l1.616.005c.539.01 1.077.04 1.614.06.538.01 1.074.052 1.61.091 1.072.069 2.141.176 3.206.3a59.114 59.114 0 0 1 9.414 1.958 62.45 62.45 0 0 1 6.034 2.153c.342.14.504.53.362.87a.673.673 0 0 1-.877.36l-.029-.012-.005-.003z"/>
                    <path d="M129.427 139.675c-.279.485-.543.98-.78 1.495-.247.507-.52 1.276.042 1.49.562.217 1.098.467 1.616.753.521.278 1.014.607 1.45 1.072.43.479.836 1.017 1.128 1.88l.01.03c.253.748-.103 1.561-.795 1.827-.82.314-1.514.28-2.173.166-.655-.13-1.242-.417-1.79-.776a10.073 10.073 0 0 1-1.555-1.227c-.483-.467-.933-.98-1.372-1.499l-.547-.645c-.425-.503-.397-1.268.061-1.715.407-.397.819-.79 1.195-1.209.378-.416.735-.848 1.064-1.298.34-.444.651-.906.949-1.379.292-.476.572-.96.796-1.484.221-.516.798-.737 1.289-.492.49.245.71.863.489 1.38a1.071 1.071 0 0 1-.145.24c-.353.435-.649.909-.932 1.39z"/>
                </g>
                <path fill="#F397D6" d="M169.463 303.315c-1.003-13.817-4.964-38.786-25.187-65.922 0 0-24.458-27.442-19.225-29.813 3.934-1.781 23.362 8.352 31.907 13.681 1.768 1.104 2.265-.054 1.872-2.104l-10.425-45.496c-1.451-6.33-2.229-12.803-2.188-19.297.062-10.085 1.906-19.843 11.298-.17 10.057 21.067 14.68 37.421 14.68 37.421s5.856-12.904 14.002-2.075c0 0 7.73-13.607 17.42-1.739 0 0 9.954-14.314 15.974 4.59 6.065 19.046 34.62 97.068 41.758 102.301L171.6 320.695s-1.543-9.185-2.138-17.38"/>
                <path stroke="#CC177E" stroke-linecap="round" stroke-linejoin="round" stroke-width="2" d="M214.73 192.166l-3.706 2.242a11.856 11.856 0 0 1-7.986 1.567h-.001a11.856 11.856 0 0 0-7.985 1.567 11.857 11.857 0 0 1-7.984 1.567h-.007a11.854 11.854 0 0 0-7.982 1.565l-3.714 2.245M186.197 189.54s1.163 1.45 1.784 3.344M203.616 187.801s.705 1.248 1.278 2.898"/>
            </g>
        </g>
    </g>
</svg>
