<svg xmlns="http://www.w3.org/2000/svg" width="32" height="32" viewBox="0 0 32 32">
  <g id="twitter-logo-button" transform="translate(0)" opacity="0.5">
    <g id="Group_744" data-name="Group 744">
      <path id="Path_587" data-name="Path 587" d="M16,0A16,16,0,1,0,32,16,16.018,16.018,0,0,0,16,0Zm7.138,12.338c.007.159.011.318.011.478A10.476,10.476,0,0,1,7.025,21.639a7.436,7.436,0,0,0,5.452-1.525,3.686,3.686,0,0,1-3.44-2.558,3.7,3.7,0,0,0,1.663-.062,3.683,3.683,0,0,1-2.954-3.611c0-.015,0-.032,0-.046a3.668,3.668,0,0,0,1.667.46A3.688,3.688,0,0,1,8.275,9.38a10.457,10.457,0,0,0,7.59,3.849A3.685,3.685,0,0,1,22.14,9.87a7.351,7.351,0,0,0,2.339-.894,3.7,3.7,0,0,1-1.622,2.038,7.321,7.321,0,0,0,2.115-.579A7.408,7.408,0,0,1,23.138,12.338Z" fill="#fff"/>
    </g>
  </g>
</svg>
